<svg width="173" height="55" viewBox="0 0 173 55" fill="none" xmlns="http://www.w3.org/2000/svg">
<g clip-path="url(#clip0)">
<path d="M73.5931 19.1546C71.0396 17.9376 67.6881 17.9112 65.0016 19.2075C63.6451 19.8688 62.5811 20.7683 61.7831 21.9059C60.9851 23.0434 60.5596 24.3662 60.5596 25.7948V30.8741C60.5596 32.2498 60.9586 33.5196 61.7299 34.6307C62.5013 35.7419 63.5653 36.6149 64.8952 37.2233C66.2252 37.8318 67.6881 38.1493 69.284 38.1493C70.7204 38.1493 72.0503 37.9376 73.2739 37.4879C74.4974 37.0646 75.4816 36.4561 76.1998 35.7419C76.9712 34.9747 77.3435 34.181 77.3435 33.308C77.3435 32.4879 77.0244 31.8265 76.386 31.3503C75.8008 30.927 75.0028 30.6889 74.0719 30.6889C73.7261 30.6889 73.4867 30.7154 73.3271 30.7419L72.9547 30.7948V31.1651C72.9547 31.9852 72.6621 32.6466 72.1035 33.1228C71.5184 33.6255 70.5874 33.89 69.3372 33.89C68.0871 33.89 67.1295 33.5725 66.4911 32.9905C65.8528 32.3821 65.5602 31.5884 65.5602 30.5831V29.9482H75.3752C76.0668 29.9482 76.652 29.7366 77.1041 29.3133C77.5829 28.89 77.8223 28.3609 77.8223 27.726V25.5567C77.8223 24.1546 77.4233 22.8583 76.6786 21.7207C75.9338 20.6625 74.8964 19.763 73.5931 19.1546ZM69.3106 22.3821C70.4544 22.3821 71.3588 22.6731 72.0503 23.2815C72.7153 23.8636 73.0611 24.6307 73.0611 25.6096V26.0593H65.5602V25.6096C65.5602 24.6307 65.8794 23.8636 66.5709 23.2815C67.2625 22.6731 68.1669 22.3821 69.3106 22.3821Z" fill="black"/>
<path d="M94.1008 28.0682C92.7708 27.0629 90.7493 26.2957 87.8766 25.7137C86.4669 25.4227 85.4561 25.1317 84.8975 24.8143C84.4187 24.5497 84.206 24.2323 84.206 23.7825C84.206 23.6238 84.206 23.1741 85.0039 22.7243C85.6157 22.3804 86.4403 22.2217 87.3712 22.2217C89.7917 22.2217 91.1483 23.1211 91.4941 24.9995L91.5739 25.3698H91.9463C93.0368 25.3434 93.8614 25.1582 94.42 24.7878C95.0318 24.391 95.3509 23.7561 95.3509 22.9889C95.3509 21.5338 94.5264 20.3434 92.9038 19.4703C91.3611 18.6502 89.446 18.2534 87.185 18.2534C84.8443 18.2534 82.9292 18.7561 81.5195 19.7614C80.0565 20.7931 79.3117 22.1688 79.3117 23.8354C79.3117 25.0524 79.6043 26.0577 80.1629 26.8248C80.7215 27.5656 81.5726 28.1741 82.6632 28.6502C83.7272 29.1 85.1635 29.5233 86.9722 29.9201C88.7278 30.3169 89.9247 30.7137 90.5099 31.0841C91.0153 31.4016 91.2547 31.8248 91.2547 32.3539C91.2547 32.6979 91.1749 33.1741 90.3769 33.5444C89.6853 33.8619 88.6746 34.0471 87.3978 34.0471C86.2275 34.0471 85.2433 33.7825 84.4453 33.227C83.6474 32.6979 83.1686 31.9042 82.9824 30.846L82.9026 30.4756L82.5302 30.5021C79.8171 30.6079 79.2319 31.9307 79.2319 33.0418C79.2319 34.6291 80.0565 35.8989 81.6524 36.8513C83.1952 37.7508 85.1635 38.2005 87.5042 38.2005C90.1109 38.2005 92.2123 37.6979 93.755 36.6661C95.3243 35.6079 96.1489 34.1793 96.1489 32.3804C96.1489 30.5286 95.4573 29.1 94.1008 28.0682Z" fill="black"/>
<path d="M111.23 18.9149C110.406 19.4175 109.98 20.2112 109.98 21.3223V29.9995C109.98 31.0577 109.608 31.9043 108.863 32.6186C108.118 33.3329 107.161 33.6768 105.937 33.6768C104.82 33.6768 103.996 33.4122 103.464 32.9096C102.932 32.3805 102.666 31.6927 102.666 30.7403V18.2271H102.213C100.671 18.2271 99.5269 18.4651 98.7555 18.9149C97.931 19.4175 97.5054 20.2112 97.5054 21.3223V30.9784C97.5054 32.354 97.8246 33.5974 98.4363 34.6556C99.0481 35.7403 99.9259 36.6133 101.043 37.2218C102.16 37.8302 103.41 38.1477 104.793 38.1477C106.256 38.1477 107.56 37.8038 108.73 37.1424C109.262 36.8514 109.741 36.481 110.193 36.0842V38.1477H110.645C112.108 38.1477 113.225 37.8302 113.97 37.1953C114.742 36.5339 115.114 35.608 115.114 34.444V18.2271H114.635C113.119 18.2271 112.002 18.4651 111.23 18.9149Z" fill="black"/>
<path d="M136.792 18.2271C135.462 18.2271 134.265 18.5181 133.255 19.1265C132.457 19.6027 131.739 20.2112 131.127 20.9784C130.143 19.153 128.573 18.2535 126.445 18.2535C125.142 18.2535 124.025 18.571 123.067 19.2323C122.668 19.4969 122.296 19.8144 121.924 20.1847V18.2535H121.471C117.801 18.2535 117.029 20.2641 117.029 21.9572V38.1741H117.481C118.998 38.1741 120.088 37.936 120.833 37.4863C121.658 36.9837 122.057 36.19 122.057 35.0789V26.1371C122.057 25.0524 122.323 24.2059 122.908 23.5445C123.466 22.9096 124.211 22.5921 125.169 22.5921C126.153 22.5921 127.43 22.8831 127.43 25.3964V38.1477H127.882C129.371 38.1477 130.462 37.9096 131.207 37.4599C132.031 36.9572 132.43 36.1636 132.43 35.0524V26.0313C132.43 24.8937 132.723 24.0207 133.308 23.4651C133.893 22.8831 134.611 22.6186 135.462 22.6186C136.26 22.6186 136.819 22.8567 137.191 23.3064C137.59 23.8091 137.777 24.4969 137.777 25.3964V38.1477H138.229C139.745 38.1477 140.835 37.9096 141.58 37.4599C142.405 36.9572 142.804 36.1636 142.804 35.0524V25.0524C142.804 23.0948 142.272 21.4546 141.208 20.1847C140.144 18.8884 138.654 18.2271 136.792 18.2271Z" fill="black"/>
<path d="M161.423 21.8249C160.652 20.7138 159.561 19.8144 158.204 19.1794C156.848 18.5445 155.305 18.2271 153.629 18.2271C151.927 18.2271 150.384 18.5445 149.054 19.1794C147.698 19.8144 146.607 20.7138 145.836 21.8249C145.065 22.936 144.666 24.2323 144.666 25.608V31.0577C144.666 32.4334 145.065 33.6503 145.862 34.735C146.634 35.7932 147.724 36.6397 149.081 37.2482C150.438 37.8567 151.954 38.1477 153.629 38.1477C155.279 38.1477 156.821 37.8567 158.178 37.2482C159.534 36.6397 160.625 35.7932 161.396 34.735C162.194 33.6503 162.593 32.4069 162.593 31.0577V25.608C162.62 24.2323 162.221 22.9625 161.423 21.8249ZM156.529 32.8831C155.837 33.4122 154.853 33.7032 153.629 33.7032C152.406 33.7032 151.422 33.4387 150.73 32.8831C150.065 32.354 149.719 31.6927 149.719 30.7932V25.7932C149.719 24.8408 150.039 24.1001 150.73 23.5181C151.422 22.936 152.379 22.6186 153.603 22.6186C154.826 22.6186 155.784 22.9096 156.475 23.5181C157.167 24.1001 157.486 24.8408 157.486 25.7932V30.7932C157.539 31.6927 157.22 32.3805 156.529 32.8831Z" fill="black"/>
<path d="M27.663 55.0265C42.9408 55.0265 55.326 42.7084 55.326 27.5132C55.326 12.3181 42.9408 0 27.663 0C12.3851 0 0 12.3181 0 27.5132C0 42.7084 12.3851 55.0265 27.663 55.0265Z" fill="white"/>
<path d="M49.6073 27.5131C49.6073 21.1375 46.7612 15.1851 42.1064 11.1375C44.5003 13.9946 45.8568 17.5396 45.8568 21.2433C45.8568 22.1692 45.777 23.0951 45.6174 23.9946C45.3514 25.0263 44.6067 25.7142 43.7289 25.7142C43.0905 25.7142 42.5585 26.1639 42.399 26.8253C42.2926 27.275 42.1862 27.7248 42.0266 28.2009C42.0266 28.2274 42 28.2539 42 28.2803C41.7606 28.9946 41.4414 29.6824 41.0956 30.3438C36.893 40.0528 25.8544 46.6136 18.7524 47.4867C21.5453 48.7036 24.5776 49.365 27.6631 49.365C39.7391 49.3385 49.6073 39.5237 49.6073 27.5131Z" fill="url(#paint0_linear)"/>
<path d="M24.4979 26.693C24.4447 26.693 24.3915 26.693 24.3383 26.6665L18.4865 24.7882C18.2205 24.7089 18.0609 24.4179 18.1407 24.1269C18.2205 23.8623 18.5131 23.7036 18.8057 23.783L24.6575 25.6613C24.9235 25.7406 25.0831 26.0316 25.0033 26.3226C24.8969 26.5343 24.7107 26.693 24.4979 26.693Z" fill="#232323"/>
<path d="M30.8016 26.693C30.5888 26.693 30.376 26.5607 30.2962 26.3226C30.2164 26.0581 30.3494 25.7671 30.642 25.6612L36.4938 23.7829C36.7598 23.7036 37.0524 23.8358 37.1588 24.1269C37.2386 24.3914 37.1056 24.6824 36.813 24.7882L30.9612 26.6665C30.9346 26.6665 30.8548 26.693 30.8016 26.693Z" fill="#232323"/>
<path d="M22.0509 7.75128C22.7957 8.51847 23.6734 9.12694 24.631 9.55022C25.5886 9.9735 26.6259 10.2116 27.6633 10.1851C28.7007 10.1851 29.738 9.9735 30.6956 9.55022C31.6532 9.12694 32.5043 8.49202 33.2757 7.75128C33.7811 7.22218 34.2333 6.64017 34.6056 6.00525C33.0895 3.51847 30.5626 1.85181 27.6633 1.85181C24.7374 1.85181 22.2105 3.51847 20.7476 6.00525C21.1199 6.64017 21.5455 7.22218 22.0509 7.75128Z" fill="#232323"/>
<path d="M35.1641 6.56079C34.8715 7.22217 34.4725 7.85709 33.9937 8.41264C33.249 9.33857 32.2914 10.1322 31.2008 10.6613C30.1103 11.2169 28.8867 11.4814 27.6366 11.4814C26.413 11.4814 25.1895 11.1904 24.0989 10.6613C23.0083 10.1322 22.0508 9.33857 21.306 8.41264C20.8272 7.83063 20.4548 7.22217 20.1356 6.56079C14.0977 9.12693 9.89502 14.7354 9.89502 21.2433C9.89502 22.1693 9.97482 23.0423 10.1344 23.9153C10.3206 24.6825 10.9058 25.2645 11.5708 25.2645C12.3953 25.2645 13.0071 24.5238 13.0869 23.3333C13.1933 21.7195 13.6189 20.1851 14.2839 18.783C15.135 17.1163 16.7842 15.9788 18.6727 15.9788C19.9495 15.9788 21.0932 16.5079 21.971 17.328C23.4605 18.8359 25.4555 19.7883 27.6632 19.7883C29.8709 19.7883 31.8658 18.8624 33.3554 17.328C34.2331 16.4814 35.3769 15.9788 36.6536 15.9788C38.5422 15.9788 40.1913 17.1163 41.0425 18.783C41.7075 20.1851 42.133 21.7195 42.2394 23.3333C42.3192 24.5238 42.931 25.2645 43.7556 25.2645C44.4206 25.2645 44.9791 24.7089 45.1919 23.9153C45.3515 23.0423 45.4313 22.1428 45.4313 21.2433C45.4047 14.7354 41.2021 9.12693 35.1641 6.56079Z" fill="#232323"/>
<path d="M17.5821 46.9047C23.5669 46.7196 33.3288 41.6137 38.5688 33.5979C35.8025 36.2963 31.8924 37.91 27.6366 37.91C20.4814 37.91 14.2839 33.2539 12.8741 26.8254C12.7145 26.1905 12.1825 25.7143 11.5442 25.7143C10.6664 25.7143 9.92163 25.0264 9.68224 24.0211C9.52264 23.0952 9.41625 22.1428 9.41625 21.2169C9.41625 17.5132 10.7994 13.9682 13.1667 11.1111C8.53848 15.1852 5.69238 21.1111 5.69238 27.5132C5.69238 35.6614 10.1876 43.0423 17.4491 46.8518C17.4491 46.8254 17.5289 46.8783 17.5821 46.9047Z" fill="url(#paint1_linear)"/>
</g>
<defs>
<linearGradient id="paint0_linear" x1="24.9065" y1="37.0177" x2="52.5432" y2="22.0991" gradientUnits="userSpaceOnUse">
<stop stop-color="#FDAE00"/>
<stop offset="0.5835" stop-color="#DC4600"/>
<stop offset="1" stop-color="#C60000"/>
</linearGradient>
<linearGradient id="paint1_linear" x1="5.70257" y1="29.0094" x2="38.578" y2="29.0094" gradientUnits="userSpaceOnUse">
<stop stop-color="#FDAE00"/>
<stop offset="0.5835" stop-color="#DC4600"/>
<stop offset="1" stop-color="#C60000"/>
</linearGradient>
<clipPath id="clip0">
<rect width="173" height="55" fill="white"/>
</clipPath>
</defs>
</svg>
